{"scene":0,"asset":{"generator":"ImageToStl.com","version":"2.0"},"scenes":[{"name":"Scene","nodes":[0]}],"nodes":[{"name":"Node0","children":[1]},{"name":"Node1","mesh":0}],"materials":[{"name":"x1","pbrMetallicRoughness":{"baseColorFactor":[0.85,0.85,0.85,1.0],"metallicFactor":0.0,"roughnessFactor":1.0},"doubleSided":true}],"meshes":[{"name":"Mesh0","primitives":[{"indices":1,"material":0,"attributes":{"POSITION":0}}]}],"accessors":[{"bufferView":0,"componentType":5126,"count":2826,"type":"VEC3","min":[-44.45,-44.436184,0.0],"max":[44.45,44.436184,47.625]},{"bufferView":1,"componentType":5123,"count":17004,"type":"SCALAR"}],"bufferViews":[{"target":34962,"buffer":0,"byteLength":33912,"byteOffset":0},{"target":34963,"buffer":0,"byteLength":34008,"byteOffset":33912}],"buffers":[{"byteLength":67920,"uri":"data:application/octet-stream;base64,"}]}